<svg xmlns="http://www.w3.org/2000/svg" width="1039.896pt" height="150pt" fill-rule="evenodd" viewBox="0 0 1039.896 150"><path d="M15.978 36.86C15.99 19.477 14.158 17.851 0 16.497V9.215h55.858v7.282C42.492 17.851 40.75 19.477 40.75 36.86v35.446c3.711-1.221 7.454-4.43 11.356-8.493 8.668-9.342 20.525-25.147 27.808-36.863 3.86-6.11 2.932-9.004-4.223-9.932l-3.78-.52V9.214h48.187v7.282c-11.434 1.374-16.258 3.019-27.37 14.77-10.329 11.029-19.92 22.739-27.15 32.07 10.406 18.336 25.24 43.498 38.553 61.856 7.735 10.514 11.117 13.357 19.169 14.484v7.288H86.468C76.44 132.032 62.64 108.06 50.704 86.99c-3.65-6.314-6.457-7.111-9.954-6.33v38.685c-.365 17.386 1.742 19.014 15.99 20.332v7.288H.88v-7.288c13.287-1.318 15.098-2.946 15.098-20.332ZM148.109 105.223c4.283 11.965 15.844 35.26 35.492 35.26 12.768 0 20.516-9.758 20.516-23.364 0-13.45-8.246-22.73-23.188-30.647-17.943-9.417-35.622-22.326-35.622-43.29 0-21.939 16.165-40.632 45.397-40.632 11.12 0 21.32 2.844 27.875 5.137.725 8.495 2.226 17.884 4.18 31.654l-7.996 1.498c-4.588-13.698-10.885-28.777-27.033-28.777-11.248 0-18.854 9.478-18.854 21.603 0 11.491 8.434 19.49 23.364 26.947 20.374 10.154 36.252 22.822 36.252 45.738 0 25.15-19.533 43.65-48.728 43.65-6.657 0-13.701-1.058-19.092-2.691-5.663-1.568-10.215-3.428-14.13-5.195-1.72-6.053-4.038-20.773-6.256-34.615zM278.012 90.814a1974.38 1974.38 0 0 1 15.265-47.74h.629l14.185 47.74zm33.593 11.056c2.215 6.369 6.075 18.383 8.057 24.386 3.475 10.428 1.828 12.01-9.913 13.496v7.515h53.829v-7.515c-10.558-1.36-13.54-2.93-19.781-21.39-7.587-22.595-15.95-48.861-24.323-75.014L306.604 2.55l-10.597 2.921-39.239 113.254c-6.319 18.222-8.89 19.62-20.637 21.027v7.515h44.553v-7.515c-14.116-1.86-15.332-3.32-12.23-15.381 2.217-8.496 5.102-18.655 6.476-22.501z" style="fill:#005257;stroke:none;stroke-width:2.76896"/><path d="M593.972 62.537V49.48H581.08c.158-.14.31-.274.47-.437 4.126-4.134 3.703-10.683 3.703-10.683V17.18s.905-6.718-3.124-9.783c-4.034-3.07-10.173-2.437-10.173-2.437l-62.747.006v13.061h58.632v20.336s-.102 4.344-1.26 7.415a26.704 26.704 0 0 1-1.744 3.705h-62.814v13.055h34.551v9.598l-27.365.002v13.052h58.632v22.266h17.412V84.353s.905-6.717-3.124-9.794c-4.034-3.068-10.173-2.425-10.173-2.425h-17.97v-9.597zM489.674 20.266h-8.363V4.688H458.15v3.757h5.76v73.159h17.402V32.837h8.363zM446.76 36.705c0-5.695-1.852-10.973-4.992-15.32h6.454V8.814h-20.714L427.577 0h-23.17v3.755h5.692v5.059h-21.041v12.57h6.784c-3.14 4.348-4.995 9.626-4.995 15.321 0 14.867 12.518 26.909 27.958 26.909 15.437 0 27.955-12.042 27.955-26.909zm-39.241 0c0-7.963 4.424-14.515 10.095-15.32h2.379c5.67.805 10.093 7.357 10.093 15.32 0 8.518-5.05 15.415-11.281 15.415-6.23 0-11.286-6.897-11.286-15.415zM422.778 73.784H399.61v3.75h5.646v18.543s-.908 6.463 3.124 9.42c4.029 2.955 10.173 2.346 10.173 2.346l62.756-.003V95.269h-58.641zM695.036 49.102h-11.322V18.02h11.322V4.96h-77.608v13.06h12.8v31.082h-12.8V62.16h77.608zM647.637 18.02h18.674v31.082h-18.674zM683.132 94.776l.07-22.318h-23.163v3.896h5.682v18.422H650.91l.07-22.318H627.81v3.896h5.69v18.422H610.41v13.058h91.96V94.776ZM721.183 51.785v13.056h39.555v15.738h17.403V64.841h35.008V51.785Z" style="fill:#5c5d5e;stroke:none;stroke-width:2.76896"/><path d="M746.735 72.458h-23.167v3.896h5.57v18.17s.106 5.566 4.143 9.597c4.032 4.032 10.21 3.719 10.21 3.719h64.765V94.779H746.7zM720.69 34.238l5.43 12.574c16.647 0 31.459-6.277 40.987-16.043 9.514 9.766 24.328 16.043 40.977 16.043l4.727-12.574c-14.282 0-33.388-5.64-36.356-16.218h29.904V4.96h-79.981v13.06h31.226c-3.514 10.963-22.628 16.218-36.913 16.218ZM948.606 36.955c0 14.86 12.516 26.905 27.958 26.905 15.435 0 27.956-12.044 27.956-26.905 0-5.699-1.853-10.98-4.995-15.332h6.448V9.06H985.27l-.102-9.027h-23.174v3.76h5.868V9.06h-21.05v12.563h6.792c-3.143 4.353-4.998 9.633-4.998 15.332zm39.24 0c0 8.511-5.051 15.409-11.282 15.409-6.23 0-11.291-6.898-11.291-15.41 0-7.969 4.427-14.514 10.1-15.331h2.38c5.665.817 10.092 7.362 10.092 15.332z" style="fill:#5c5d5e;stroke:none;stroke-width:2.76896"/><path d="M1038.138 5.02h-23.165v3.76h5.809V79.1H985.27V67.68h-.102v-.177h-23.174v3.754h5.868v7.845h-22.274v12.266h75.194v16.531h17.406zM888.916 36.93c0-5.699-1.844-10.971-4.993-15.33h6.458V9.033h-20.715l.014-8.957h-23.165v3.757h5.74v5.2H831.21v12.569h6.786c-3.14 4.358-4.992 9.63-4.992 15.329 0 14.86 12.516 26.908 27.961 26.908 15.434 0 27.95-12.047 27.95-26.908zm-39.24 0c0-7.967 4.423-14.52 10.097-15.33h2.378c5.674.81 10.09 7.363 10.09 15.33 0 8.509-5.048 15.414-11.275 15.414-6.236 0-11.29-6.905-11.29-15.414z" style="fill:#5c5d5e;stroke:none;stroke-width:2.76896"/><path d="m923.392 95.316.025-90.257h-23.162v3.757h5.803v14.687H892.69V36.07h13.368v5.164H892.69v12.571h13.368v26.998H864.74v-7.177l-23.024.01v3.905h5.616v18.413s-.452 5.544 2.328 8.756c2.88 3.323 9.598 3.384 9.598 3.384l51.621-.006s5.38.495 9.22-3.201c3.833-3.697 3.293-9.573 3.293-9.573zm-17.334.202H864.74v-4.555h41.318zM395.1 126.472c0-3.372-.363-3.663-3.107-3.918v-1.503h11.253v1.503c-2.57.255-2.932.546-2.932 3.918v6.698c.734-.23 1.467-.866 2.237-1.639 1.612-1.692 3.924-4.768 5.305-6.986.737-1.163.576-1.739-.847-1.908l-.692-.083v-1.503h9.633v1.503c-2.243.25-3.195.529-5.369 2.786a73.297 73.297 0 0 0-5.122 5.994c1.935 3.412 4.67 8.185 7.481 12.029 1.44 1.969 2.13 2.522 3.664 2.733v1.503h-7.598c-1.822-2.769-4.362-7.24-6.746-11.474-.697-1.224-1.257-1.368-1.946-1.24v7.295c-.086 3.373.363 3.664 3.107 3.916v1.503h-11.262v-1.503c2.578-.252 2.94-.543 2.94-3.916zM428.117 122.416c3.804 0 5.646 4.873 5.646 12.787 0 7.29-1.797 11.031-4.774 11.031-4.054 0-5.87-5.729-5.87-12.693 0-6.642 1.858-11.125 4.954-11.125zm.64-1.875c-8.174 0-11.708 7.31-11.708 13.928 0 7.836 4.334 13.643 11.226 13.643 6.654 0 11.477-5.29 11.477-14.128 0-8.057-4.657-13.443-10.954-13.443zM451.775 124.722c0-.905.044-1.268.266-1.517.216-.21.706-.36 1.467-.36 2.05 0 4.564 1.573 4.564 5.69 0 2.14-.593 3.79-1.714 4.699-.875.748-2.014 1.096-3.523 1.096h-1.06zm-5.23 17.458c0 3.373-.363 3.739-3.113 3.916v1.503h11.333v-1.503c-2.627-.177-2.99-.543-2.99-3.916v-6.116l.772.02c1.188.035 1.836.514 2.357 1.807.878 2.199 2.06 4.514 3.087 6.156 1.648 2.66 2.99 3.73 7.706 3.918.573.022 1.108.06 1.65.083l.266-1.326c-.858-.347-1.49-.917-2.381-1.903-.69-.753-1.634-2.063-3.032-4.31-1.121-1.792-2.473-4.67-3.01-5.885 2.658-1.202 4.616-3.212 4.616-6.726 0-2.5-1.024-4.314-2.705-5.413-1.498-.983-3.484-1.434-6.31-1.434H443.72v1.503c2.58.327 2.866.432 2.866 3.763zM473.223 126.433c0-3.333-.365-3.63-2.946-3.879v-1.503h18.142c.042.667.216 3.663.39 6.1l-1.627.19c-.482-1.724-.936-2.757-1.537-3.402-.623-.67-1.803-.964-3.94-.964h-1.579c-1.348 0-1.559.158-1.559 1.49v8.21h2.855c3.074 0 3.22-.214 3.863-3.18h1.622l.02 8.651h-1.642c-.623-3.09-.75-3.3-3.863-3.3h-2.855v7.287c0 1.958.17 2.797.922 3.19.629.333 1.775.355 3.326.355 1.866 0 3.35-.297 4.167-1.296.679-.823 1.313-2.124 2.016-3.888l1.623.374c-.236 1.528-.953 5.574-1.293 6.731h-19.571v-1.503c3.1-.252 3.466-.582 3.466-3.916zM501.01 137.188a280.16 280.16 0 0 1 2.871-8.689h.125l2.644 8.689zm6.346 2.168c.344.925 1.036 3.002 1.443 4.187.7 2.013.382 2.279-1.811 2.553v1.503h10.533v-1.503c-1.98-.252-2.553-.52-3.75-3.963-1.47-4.27-3.062-9.145-4.654-13.98l-2.472-7.612-2.227.582-7.537 21.135c-1.193 3.35-1.703 3.583-3.94 3.838v1.503h8.595v-1.503c-2.678-.36-2.896-.598-2.304-2.802.43-1.565.925-3.29 1.177-3.938zM523.937 128.549c0-2.772 0-3.62-.69-4.577-.692-.961-1.595-1.252-3.107-1.382v-1.54h7.03l12.807 17.738h.086v-7.307c0-3.38-.216-5.438-.418-6.72-.216-1.387-1.238-2.04-3.663-2.17v-1.54h9.505v1.54c-1.808.088-2.674.769-2.846 2.162-.172 1.29-.388 3.347-.388 6.728v16.41h-2.735l-13.308-19.517h-.086v8.836c0 3.384.213 5.389.385 6.643.21 1.467 1.271 2.077 3.688 2.207v1.54h-9.547v-1.54c1.814-.089 2.725-.731 2.896-2.199.172-1.262.39-3.267.39-6.65zM559.476 139.591c.859 2.265 3.165 6.643 6.837 6.643 2.342 0 3.78-1.789 3.78-4.22 0-2.414-1.48-4.145-4.364-5.615-3.653-1.853-6.89-4.317-6.89-8.163 0-4.162 3.118-7.695 8.833-7.695 2.119 0 4.182.529 5.472.989.133 1.589.43 3.383.814 6.02l-1.62.296c-.903-2.606-2.149-5.43-5.183-5.43-2.038 0-3.509 1.697-3.509 3.95 0 2.025 1.543 3.523 4.428 4.89 4.159 1.992 6.992 4.428 6.992 8.607 0 4.738-3.775 8.249-9.492 8.249-1.274 0-2.634-.2-3.705-.515-1.11-.3-1.991-.651-2.75-.995-.324-1.118-.792-3.907-1.224-6.545zM585.712 122.975h-1.307c-1.8 0-2.741.537-3.336 1.257-.518.612-1.025 1.78-1.468 3.752h-1.659c.13-3.062.385-5.89.432-7.972h1.014c.565.75.947 1.039 1.96 1.039h14.191c.953 0 1.288-.25 1.889-1.039h1.05c.04 1.706.212 4.937.39 7.847l-1.66.122c-.47-2.17-.977-3.35-1.58-4.015-.604-.706-1.678-.991-2.985-.991h-1.59v19.205c0 3.373.366 3.664 3.622 3.916v1.503H582.26v-1.503c3.088-.252 3.453-.543 3.453-3.916zM606.4 137.188c.938-2.999 1.854-5.79 2.865-8.689h.125l2.647 8.689zm6.343 2.168c.343.925 1.035 3.002 1.442 4.187.7 2.013.38 2.279-1.813 2.553v1.503h10.536v-1.503c-1.977-.252-2.553-.52-3.752-3.963-1.468-4.27-3.06-9.145-4.652-13.98l-2.476-7.612-2.223.582-7.54 21.135c-1.19 3.35-1.7 3.583-3.937 3.838v1.503h8.594v-1.503c-2.677-.36-2.896-.598-2.303-2.802.429-1.565.924-3.29 1.174-3.938zM629.323 128.549c0-2.772 0-3.62-.69-4.577-.691-.961-1.594-1.252-3.106-1.382v-1.54h7.03l12.807 17.738h.086v-7.307c0-3.38-.216-5.438-.418-6.72-.216-1.387-1.241-2.04-3.667-2.17v-1.54h9.506v1.54c-1.805.088-2.675.769-2.843 2.162-.172 1.29-.388 3.347-.388 6.728v16.41h-2.736l-13.307-19.517h-.086v8.836c0 3.384.213 5.389.382 6.643.213 1.467 1.276 2.077 3.694 2.207v1.54h-9.553v-1.54c1.816-.089 2.727-.731 2.899-2.199.172-1.262.39-3.267.39-6.65zM662.567 125.215c0-1.252.12-1.739.438-1.974.238-.197.692-.396 1.481-.396 1.747 0 3.713.628 5.128 2.315 1.462 1.71 2.473 4.557 2.473 8.855 0 7.997-3.425 11.707-7.141 11.707-1.955 0-2.379-.96-2.379-3.694zm-5.341 16.927c0 3.372-.365 3.702-3.162 3.954v1.503h8.827c4.566 0 8.185-1.027 10.874-3.378 2.62-2.295 4.27-5.8 4.27-10.929 0-3.774-1.304-6.656-3.077-8.664-2.298-2.597-6.094-3.577-10.688-3.577h-9.94v1.503c2.53.255 2.896.582 2.896 3.954zM686.619 137.188c.941-2.999 1.858-5.79 2.868-8.689h.125l2.647 8.689zm6.343 2.168c.344.925 1.036 3.002 1.448 4.187.698 2.013.377 2.279-1.816 2.553v1.503h10.536v-1.503c-1.98-.252-2.556-.52-3.75-3.963-1.47-4.27-3.062-9.145-4.654-13.98l-2.475-7.612-2.221.582-7.54 21.135c-1.193 3.35-1.703 3.583-3.94 3.838v1.503h8.597v-1.503c-2.68-.36-2.899-.598-2.306-2.802.429-1.565.927-3.29 1.174-3.938zM714.779 124.722c0-.905.047-1.268.268-1.517.216-.21.707-.36 1.468-.36 2.046 0 4.563 1.573 4.563 5.69 0 2.14-.592 3.79-1.717 4.699-.872.748-2.01 1.096-3.519 1.096h-1.063zm-5.23 17.458c0 3.373-.36 3.739-3.113 3.916v1.503h11.333v-1.503c-2.625-.177-2.99-.543-2.99-3.916v-6.116l.775.02c1.185.035 1.833.514 2.354 1.807.878 2.199 2.06 4.514 3.087 6.156 1.65 2.66 2.99 3.73 7.706 3.918.573.022 1.11.06 1.65.083l.27-1.326c-.86-.347-1.49-.917-2.382-1.903-.692-.753-1.634-2.063-3.032-4.31-1.124-1.792-2.473-4.67-3.01-5.885 2.66-1.202 4.616-3.212 4.616-6.726 0-2.5-1.025-4.314-2.706-5.413-1.5-.983-3.486-1.434-6.31-1.434h-11.07v1.503c2.58.327 2.866.432 2.866 3.763zM741.574 125.215c0-1.252.12-1.739.438-1.974.235-.197.692-.396 1.48-.396 1.748 0 3.714.628 5.13 2.315 1.461 1.71 2.472 4.557 2.472 8.855 0 7.997-3.428 11.707-7.141 11.707-1.958 0-2.379-.96-2.379-3.694zm-5.341 16.927c0 3.372-.366 3.702-3.16 3.954v1.503h8.825c4.563 0 8.185-1.027 10.874-3.378 2.616-2.295 4.27-5.8 4.27-10.929 0-3.774-1.305-6.656-3.074-8.664-2.304-2.597-6.097-3.577-10.694-3.577h-9.938v1.503c2.531.255 2.897.582 2.897 3.954zM762.876 139.591c.864 2.265 3.167 6.643 6.836 6.643 2.346 0 3.783-1.789 3.783-4.22 0-2.414-1.479-4.145-4.364-5.615-3.653-1.853-6.89-4.317-6.89-8.163 0-4.162 3.118-7.695 8.83-7.695 2.122 0 4.185.529 5.478.989.13 1.589.426 3.383.811 6.02l-1.62.296c-.902-2.606-2.148-5.43-5.183-5.43-2.038 0-3.511 1.697-3.511 3.95 0 2.025 1.545 3.523 4.43 4.89 4.159 1.992 6.992 4.428 6.992 8.607 0 4.738-3.774 8.249-9.492 8.249-1.277 0-2.636-.2-3.705-.515a17.631 17.631 0 0 1-2.753-.995c-.32-1.118-.791-3.907-1.22-6.545zM797.385 137.188c.942-2.999 1.858-5.79 2.869-8.689h.124l2.645 8.689zm6.344 2.168c.343.925 1.035 3.002 1.448 4.187.698 2.013.377 2.279-1.816 2.553v1.503h10.535v-1.503c-1.98-.252-2.555-.52-3.751-3.963-1.47-4.27-3.06-9.145-4.652-13.98l-2.476-7.612-2.22.582-7.54 21.135c-1.194 3.35-1.703 3.583-3.94 3.838v1.503h8.594v-1.503c-2.677-.36-2.896-.598-2.303-2.802.429-1.565.924-3.29 1.174-3.938zM818.15 139.591c.86 2.265 3.165 6.643 6.836 6.643 2.343 0 3.78-1.789 3.78-4.22 0-2.414-1.479-4.145-4.364-5.615-3.65-1.853-6.89-4.317-6.89-8.163 0-4.162 3.119-7.695 8.834-7.695 2.118 0 4.18.529 5.474.989.13 1.589.426 3.383.814 6.02l-1.623.296c-.902-2.606-2.148-5.43-5.183-5.43-2.038 0-3.511 1.697-3.511 3.95 0 2.025 1.548 3.523 4.43 4.89 4.16 1.992 6.992 4.428 6.992 8.607 0 4.738-3.774 8.249-9.492 8.249-1.274 0-2.633-.2-3.705-.515a17.843 17.843 0 0 1-2.752-.995c-.322-1.118-.792-3.907-1.221-6.545zM839.33 139.591c.86 2.265 3.164 6.643 6.833 6.643 2.345 0 3.785-1.789 3.785-4.22 0-2.414-1.481-4.145-4.366-5.615-3.653-1.853-6.89-4.317-6.89-8.163 0-4.162 3.118-7.695 8.833-7.695 2.119 0 4.182.529 5.472.989.133 1.589.43 3.383.814 6.02l-1.62.296c-.903-2.606-2.146-5.43-5.183-5.43-2.036 0-3.511 1.697-3.511 3.95 0 2.025 1.545 3.523 4.43 4.89 4.159 1.992 6.992 4.428 6.992 8.607 0 4.738-3.775 8.249-9.49 8.249-1.276 0-2.636-.2-3.705-.515a17.527 17.527 0 0 1-2.752-.995c-.324-1.118-.792-3.907-1.224-6.545zM870.126 122.416c3.804 0 5.646 4.873 5.646 12.787 0 7.29-1.797 11.031-4.774 11.031-4.054 0-5.87-5.729-5.87-12.693 0-6.642 1.858-11.125 4.953-11.125zm.637-1.875c-8.174 0-11.705 7.31-11.705 13.928 0 7.836 4.334 13.643 11.226 13.643 6.653 0 11.477-5.29 11.477-14.128 0-8.057-4.658-13.443-10.954-13.443zM905.444 128.305c-1.52-4.466-3.542-5.89-5.992-5.89-3.952 0-6.646 5.306-6.646 11.425 0 7.418 2.921 12.394 6.69 12.394 2.902 0 4.566-2.456 6.632-6.114l1.68.34c-.498 1.784-1.276 5.093-1.896 6.674-1.036.271-3.863.978-6.369.978-9.395 0-12.792-6.879-12.804-13.413 0-8.243 5.25-14.158 13.74-14.158 2.556 0 4.901.568 5.934.817.266 2.509.435 4.297.653 6.69zM914.016 126.472c0-3.372-.42-3.663-3.023-3.918v-1.503h11.394v1.503c-2.642.255-3.024.546-3.024 3.918v15.708c0 3.373.382 3.664 3.024 3.916v1.503h-11.394v-1.503c2.603-.252 3.023-.543 3.023-3.916zM933.85 137.188c.942-2.999 1.858-5.79 2.87-8.689h.124l2.647 8.689zm6.347 2.168c.343.925 1.036 3.002 1.445 4.187.698 2.013.377 2.279-1.813 2.553v1.503h10.533v-1.503c-1.98-.252-2.556-.52-3.75-3.963-1.467-4.27-3.062-9.145-4.654-13.98l-2.473-7.612-2.223.582-7.54 21.135c-1.19 3.35-1.703 3.583-3.94 3.838v1.503h8.597v-1.503c-2.677-.36-2.899-.598-2.306-2.802.429-1.565.927-3.29 1.177-3.938zM956.933 122.975h-1.307c-1.8 0-2.742.537-3.337 1.257-.518.612-1.027 1.78-1.47 3.752h-1.656c.133-3.062.385-5.89.432-7.972h1.013c.565.75.947 1.039 1.96 1.039h14.192c.952 0 1.287-.25 1.888-1.039h1.05c.04 1.706.215 4.937.39 7.847l-1.656.122c-.47-2.17-.98-3.35-1.584-4.015-.603-.706-1.678-.991-2.985-.991h-1.59v19.205c0 3.373.37 3.664 3.625 3.916v1.503H953.48v-1.503c3.087-.252 3.453-.543 3.453-3.916zM976.645 126.472c0-3.372-.421-3.663-3.021-3.918v-1.503h11.389v1.503c-2.64.255-3.021.546-3.021 3.918v15.708c0 3.373.382 3.664 3.02 3.916v1.503h-11.388v-1.503c2.6-.252 3.02-.543 3.02-3.916zM999.849 122.416c3.807 0 5.648 4.873 5.648 12.787 0 7.29-1.794 11.031-4.773 11.031-4.051 0-5.87-5.729-5.87-12.693 0-6.642 1.855-11.125 4.956-11.125zm.642-1.875c-8.174 0-11.71 7.31-11.71 13.928 0 7.836 4.336 13.643 11.228 13.643 6.654 0 11.475-5.29 11.475-14.128 0-8.057-4.652-13.443-10.952-13.443zM1018.345 128.549c0-2.772 0-3.62-.686-4.577-.693-.961-1.598-1.252-3.107-1.382v-1.54h7.03l12.807 17.738h.083v-7.307c0-3.38-.216-5.438-.418-6.72-.214-1.387-1.236-2.04-3.661-2.17v-1.54h9.503v1.54c-1.808.088-2.675.769-2.846 2.162-.172 1.29-.388 3.347-.388 6.728v16.41h-2.736l-13.308-19.517h-.083v8.836c0 3.384.214 5.389.383 6.643.213 1.467 1.273 2.077 3.69 2.207v1.54h-9.547v-1.54c1.811-.089 2.722-.731 2.894-2.199.174-1.262.39-3.267.39-6.65z" style="fill:#5c5d5e;stroke:none;stroke-width:2.76896"/></svg>